<svg id="Layer_1" data-name="Layer 1" xmlns="http://www.w3.org/2000/svg" viewBox="0 0 188 94"><path d="M105.2,0H64.4V51.8H74.7V36.7H90.4V27H74.6V9.7h30.5V0Z"/><path d="M74.6,53.8H64.4V64.7H74.7V53.8Z"/><path d="M105.2,0H64.4V51.8H74.7V36.7H90.4V27H74.6V9.7h30.5V0Z"/><path d="M19.9,62.9c-.1,0-.2-.1-.3-.1a31,31,0,0,1-10.1-7A31.85,31.85,0,0,1,2.9,45.4,33.75,33.75,0,0,1,.5,32.7,33.38,33.38,0,0,1,2.9,20,32.93,32.93,0,0,1,9.5,9.6a32.64,32.64,0,0,1,10.1-7A32.05,32.05,0,0,1,32.3,0,30,30,0,0,1,46.2,3.2a33.35,33.35,0,0,1,10.5,8.5l-7.2,7.2a23,23,0,0,0-7.2-6.7A19.17,19.17,0,0,0,32.2,9.7a20.25,20.25,0,0,0-15.3,6.7,20.24,20.24,0,0,0-4.4,7.2,26.6,26.6,0,0,0-1.6,9,24.9,24.9,0,0,0,1.6,9.1,20.24,20.24,0,0,0,4.4,7.2,23.66,23.66,0,0,0,6.7,4.9h.1Z"/><path d="M43.6,63a24.38,24.38,0,0,0,9.3-7v8.7h9.5V27.5H31.7v9.7H52.9a22.94,22.94,0,0,1-7,13.4c-3.6,3.3-8.2,5-13.9,5a24.27,24.27,0,0,1-6.1-.8l-3.9,9a32.7,32.7,0,0,0,10,1.5A29.64,29.64,0,0,0,43.6,63Z"/><path d="M3.7,78.6a1.69,1.69,0,0,0,.3,1,2.41,2.41,0,0,0,.8.6c.3.2.8.3,1.2.5a14.24,14.24,0,0,1,1.6.5A6.09,6.09,0,0,1,10.2,83a5,5,0,0,1,1,3.1,5.87,5.87,0,0,1-.4,2.3,5.52,5.52,0,0,1-3,3,5.38,5.38,0,0,1-2.2.4,5.38,5.38,0,0,1-2.2-.4,5.52,5.52,0,0,1-3-3A4.92,4.92,0,0,1,0,86.3H2.8A3.59,3.59,0,0,0,3,87.4a1.93,1.93,0,0,0,.5.9,1.46,1.46,0,0,0,.9.6,3.73,3.73,0,0,0,1.2.2,2.86,2.86,0,0,0,2.1-.8,3,3,0,0,0,.7-2.1A2.24,2.24,0,0,0,8,84.7a2.44,2.44,0,0,0-1.1-.9,11.64,11.64,0,0,0-1.5-.6l-1.8-.6a4.26,4.26,0,0,1-2-1.5,4.15,4.15,0,0,1-.8-2.5,5.82,5.82,0,0,1,.3-1.9,4,4,0,0,1,1-1.5,4.19,4.19,0,0,1,1.4-.9A5.66,5.66,0,0,1,5.3,74a4.5,4.5,0,0,1,2.4.6,4,4,0,0,1,1.7,1.7L7.5,78.2a2.44,2.44,0,0,0-.9-1.1,2.84,2.84,0,0,0-1.3-.4,2.17,2.17,0,0,0-1.4.5C3.9,77.6,3.7,78.1,3.7,78.6Zm25.2-4.3v7.3h5.9V74.3h2.8V91.7H34.8V84.2H28.9v7.5H26.1V74.3ZM69.2,83a10.3,10.3,0,0,1-.6,3.5,7.5,7.5,0,0,1-1.8,2.8,10.15,10.15,0,0,1-2.7,1.9,8.61,8.61,0,0,1-6.8,0,8.77,8.77,0,0,1-2.7-1.9,7.5,7.5,0,0,1-1.8-2.8A7.19,7.19,0,0,1,52,83a10.3,10.3,0,0,1,.6-3.5,7.5,7.5,0,0,1,1.8-2.8,10.15,10.15,0,0,1,2.7-1.9,8,8,0,0,1,3.4-.7,8.31,8.31,0,0,1,6.1,2.6,7.5,7.5,0,0,1,1.8,2.8A7.19,7.19,0,0,1,69.2,83Zm-2.8,0a6.05,6.05,0,0,0-.4-2.4,6.66,6.66,0,0,0-1.2-2A4.63,4.63,0,0,0,63,77.3a5.58,5.58,0,0,0-6.4,1.3,5.61,5.61,0,0,0-1.2,2A6.72,6.72,0,0,0,55,83a6.9,6.9,0,0,0,.4,2.5,8.17,8.17,0,0,0,1.2,2,5.58,5.58,0,0,0,8.2,0,6.66,6.66,0,0,0,1.2-2A10.05,10.05,0,0,0,66.4,83Zm17.3-8.7h5.8a5.38,5.38,0,0,1,2.2.4,5.44,5.44,0,0,1,1.8,1.1,4.52,4.52,0,0,1,1.1,1.7,5.56,5.56,0,0,1,.4,2.3,5.87,5.87,0,0,1-.4,2.3,4.65,4.65,0,0,1-2.9,2.8,5.38,5.38,0,0,1-2.2.4h-3v6.4H83.7Zm2.8,8.4h3a2.9,2.9,0,1,0,0-5.8h-3Zm23.3-8.4h5.8a5.38,5.38,0,0,1,2.2.4,5.44,5.44,0,0,1,1.8,1.1,4.52,4.52,0,0,1,1.1,1.7,5.56,5.56,0,0,1,.4,2.3,5.87,5.87,0,0,1-.4,2.3,4.65,4.65,0,0,1-2.9,2.8,5.38,5.38,0,0,1-2.2.4h-3v6.4h-2.8Zm2.8,8.4h3a2.9,2.9,0,1,0,0-5.8h-3Zm23.2-8.4h10.9v2.6h-8.1v4.7h4v2.6h-4V89h8.3v2.6H135.8V74.3Z"/><path d="M132,0H107.2V9.7h14.6V64.8h10.3v-51h0Z"/><path d="M134.2,9.7h12.9V0h-13Z"/><path d="M165.9,14.7h-3.1V2.8h-4.3V0h11.7V2.7h-4.3v12Z"/><path d="M188,14.7h-3.1V4.4l-4.1,10.2h-1.4L175.3,4.4V14.6h-3.1V0h4.4l3.6,8.8L183.8,0h4.4V14.7Z"/></svg>