<svg width="188" height="94" viewBox="0 0 188 94" fill="none" xmlns="http://www.w3.org/2000/svg">
<path d="M105.183 0H64.3662V51.844H74.6393V36.6896H90.3241V26.9668H74.6393V9.72274H105.183V0Z" fill="#D689D7"/>
<path d="M74.6393 53.838H64.3662V64.7041H74.6393V53.838Z" fill="#D689D7"/>
<path d="M105.183 0H64.3662V51.844H74.6393V36.6896H90.3241V26.9668H74.6393V9.72274H105.183V0Z" fill="#5633D5"/>
<path d="M19.9049 62.8547C19.8155 62.8166 19.7263 62.7782 19.6372 62.7392C15.7848 61.027 12.4216 58.7033 9.54754 55.7682C6.73467 52.833 4.53329 49.3781 2.94342 45.4034C1.35353 41.4286 0.558594 37.1788 0.558594 32.6537C0.558594 28.1286 1.35353 23.8788 2.94342 19.9041C4.53329 15.9294 6.73467 12.4745 9.54754 9.53929C12.4216 6.60412 15.7848 4.28045 19.6372 2.56827C23.5507 0.85609 27.77 0 32.2951 0C37.4927 0 42.1095 1.07011 46.1454 3.21034C50.2424 5.35057 53.7585 8.19401 56.6936 11.7407L49.5392 18.8951C47.5824 16.0823 45.1975 13.8503 42.3847 12.1993C39.5719 10.5483 36.2086 9.72274 32.2951 9.72274C29.1765 9.72274 26.3024 10.3342 23.673 11.5572C21.1048 12.719 18.8728 14.3395 16.9772 16.4186C15.0816 18.4365 13.614 20.8519 12.5744 23.6648C11.5349 26.4776 11.0151 29.474 11.0151 32.6537C11.0151 35.8947 11.5349 38.9216 12.5744 41.7344C13.614 44.4861 15.0816 46.9015 16.9772 48.9806C18.8728 50.9985 21.1048 52.6189 23.673 53.842C23.7071 53.857 23.7413 53.8721 23.7755 53.8869L19.9049 62.8547Z" fill="#D689D7"/>
<path d="M43.6201 62.9665C47.228 61.4378 50.316 59.1141 52.8842 55.9955V64.7093H62.4235V27.4694H31.696V37.1921H52.8842C51.9059 42.7566 49.5822 47.2206 45.9132 50.5838C42.3055 53.8859 37.6887 55.5369 32.0629 55.5369C29.9134 55.5369 27.88 55.2609 25.9629 54.7089L22.0771 63.7118C25.2215 64.7437 28.5501 65.2596 32.0629 65.2596C36.16 65.2596 40.0124 64.4952 43.6201 62.9665Z" fill="#5633D5"/>
<path d="M3.6889 78.6135C3.6889 79.0123 3.7886 79.3363 3.988 79.5855C4.1874 79.8348 4.46157 80.0508 4.81052 80.2336C5.15947 80.3998 5.57489 80.5576 6.05677 80.7071C6.53865 80.8567 7.07039 81.0395 7.65197 81.2555C8.73205 81.671 9.59612 82.2692 10.2442 83.0501C10.8922 83.8145 11.2162 84.8613 11.2162 86.1906C11.2162 87.0049 11.0667 87.7609 10.7676 88.4588C10.4851 89.1401 10.0863 89.7383 9.57119 90.2534C9.07269 90.7519 8.4828 91.1507 7.80152 91.4498C7.12024 91.7323 6.3891 91.8736 5.60812 91.8736C4.81052 91.8736 4.07108 91.7323 3.3898 91.4498C2.70852 91.1507 2.11032 90.7436 1.5952 90.2285C1.0967 89.7133 0.706208 89.1235 0.423725 88.4588C0.141242 87.7776 0 87.0464 0 86.2654H2.7916C2.7916 86.6642 2.84975 87.0464 2.96607 87.412C3.099 87.7776 3.28179 88.0932 3.51442 88.3591C3.76367 88.625 4.06277 88.841 4.41172 89.0072C4.76067 89.1567 5.15947 89.2315 5.60812 89.2315C6.50542 89.2315 7.19502 88.9573 7.6769 88.409C8.1754 87.8606 8.42464 87.1461 8.42464 86.2654C8.42464 85.6174 8.29171 85.1106 8.02585 84.745C7.75998 84.3794 7.40272 84.0887 6.95407 83.8726C6.52204 83.64 6.02354 83.4489 5.45857 83.2994C4.8936 83.1332 4.30372 82.9337 3.6889 82.7011C2.8913 82.3854 2.23494 81.8953 1.71982 81.2306C1.2047 80.5493 0.947149 79.7268 0.947149 78.763C0.947149 78.0818 1.06347 77.4586 1.2961 76.8936C1.52873 76.3286 1.85275 75.8385 2.26817 75.4231C2.68359 75.0076 3.16547 74.692 3.71382 74.4759C4.27879 74.2433 4.8853 74.127 5.53335 74.127C6.4805 74.127 7.29472 74.3181 7.976 74.7002C8.67389 75.0824 9.23886 75.6391 9.67089 76.3702L7.80152 78.2396C7.5855 77.7577 7.2781 77.3921 6.8793 77.1429C6.4805 76.8936 6.05677 76.769 5.60812 76.769C5.02654 76.769 4.56127 76.9435 4.21232 77.2924C3.86337 77.6414 3.6889 78.0818 3.6889 78.6135ZM28.8562 74.2765V81.6045H34.7634V74.2765H37.555V91.724H34.7634V84.2465H28.8562V91.724H26.0646V74.2765H28.8562ZM69.2318 83.0003C69.2318 84.2299 69.0159 85.3848 68.5838 86.4648C68.1518 87.5449 67.5453 88.4838 66.7643 89.2814C66 90.079 65.086 90.7103 64.0225 91.1756C62.9757 91.6409 61.8375 91.8736 60.6078 91.8736C59.3782 91.8736 58.2316 91.6409 57.1681 91.1756C56.1213 90.7103 55.2074 90.079 54.4264 89.2814C53.6621 88.4838 53.0639 87.5449 52.6318 86.4648C52.1998 85.3848 51.9837 84.2299 51.9837 83.0003C51.9837 81.7707 52.1998 80.6157 52.6318 79.5357C53.0639 78.4556 53.6621 77.5168 54.4264 76.7192C55.2074 75.9216 56.1213 75.2902 57.1681 74.8249C58.2316 74.3596 59.3782 74.127 60.6078 74.127C61.8375 74.127 62.9757 74.3596 64.0225 74.8249C65.086 75.2902 66 75.9216 66.7643 76.7192C67.5453 77.5168 68.1518 78.4556 68.5838 79.5357C69.0159 80.6157 69.2318 81.7707 69.2318 83.0003ZM66.3904 83.0003C66.3904 82.1362 66.2492 81.322 65.9667 80.5576C65.6842 79.7932 65.2854 79.1369 64.7703 78.5885C64.2552 78.0235 63.6404 77.5833 62.9258 77.2675C62.2279 76.9352 61.4552 76.769 60.6078 76.769C59.7603 76.769 58.9794 76.9352 58.2648 77.2675C57.5669 77.5833 56.9605 78.0235 56.4453 78.5885C55.9303 79.1369 55.5315 79.7932 55.2489 80.5576C54.9665 81.322 54.8252 82.1362 54.8252 83.0003C54.8252 83.8809 54.9665 84.7034 55.2489 85.4678C55.5315 86.2156 55.9303 86.8719 56.4453 87.4369C56.9605 87.9852 57.5669 88.4256 58.2648 88.7579C58.9794 89.0737 59.7603 89.2315 60.6078 89.2315C61.4552 89.2315 62.2279 89.0737 62.9258 88.7579C63.6404 88.4256 64.2552 87.9852 64.7703 87.4369C65.2854 86.8719 65.6842 86.2156 65.9667 85.4678C66.2492 84.7034 66.3904 83.8809 66.3904 83.0003ZM83.7162 74.2765H89.5238C90.3214 74.2765 91.0525 74.4094 91.7172 74.6753C92.3984 74.9412 92.9883 75.3151 93.4868 75.7969C93.9853 76.2788 94.3675 76.8604 94.6334 77.5417C94.9158 78.2229 95.0571 78.9791 95.0571 79.8099C95.0571 80.6407 94.9158 81.3968 94.6334 82.078C94.3675 82.7593 93.9853 83.3409 93.4868 83.8228C92.9883 84.3046 92.3984 84.6785 91.7172 84.9444C91.0525 85.2103 90.3214 85.3432 89.5238 85.3432H86.5078V91.724H83.7162V74.2765ZM86.5078 82.7011H89.5238C90.4044 82.7011 91.094 82.4353 91.5925 81.9036C92.1076 81.3719 92.3652 80.674 92.3652 79.8099C92.3652 78.9458 92.1076 78.2479 91.5925 77.7162C91.094 77.1845 90.4044 76.9186 89.5238 76.9186H86.5078V82.7011ZM109.78 74.2765H115.587C116.385 74.2765 117.116 74.4094 117.781 74.6753C118.461 74.9412 119.052 75.3151 119.55 75.7969C120.049 76.2788 120.431 76.8604 120.697 77.5417C120.979 78.2229 121.12 78.9791 121.12 79.8099C121.12 80.6407 120.979 81.3968 120.697 82.078C120.431 82.7593 120.049 83.3409 119.55 83.8228C119.052 84.3046 118.461 84.6785 117.781 84.9444C117.116 85.2103 116.385 85.3432 115.587 85.3432H112.571V91.724H109.78V74.2765ZM112.571 82.7011H115.587C116.467 82.7011 117.157 82.4353 117.656 81.9036C118.17 81.3719 118.429 80.674 118.429 79.8099C118.429 78.9458 118.17 78.2479 117.656 77.7162C117.157 77.1845 116.467 76.9186 115.587 76.9186H112.571V82.7011ZM135.842 74.2765H146.784V76.9186H138.634V81.6045H142.597V84.2465H138.634V89.0819H146.934V91.724H135.842V74.2765Z" fill="#5633D5"/>
<path d="M132.034 0H107.237V9.72274H121.821V64.805H132.094V13.7543H132.091L132.034 0Z" fill="#5633D5"/>
<path d="M134.196 9.72274H147.142V0H134.156L134.196 9.72274Z" fill="#D689D7"/>
<path d="M165.89 14.6561H162.754V2.76787H158.477V0.026123H170.145V2.76787H165.89V14.6561Z" fill="#D689D7"/>
<path d="M188 14.6561H184.864V4.41292L180.74 14.6561H179.38L175.257 4.41292V14.6561H172.142V0.026123H176.507L180.06 8.86552L183.614 0.026123H188V14.6561Z" fill="#D689D7"/>
</svg>
